<?xml version="1.0" encoding="UTF-8" standalone="no"?>
<!DOCTYPE svg PUBLIC "-//W3C//DTD SVG 1.1//EN" "http://www.w3.org/Graphics/SVG/1.1/DTD/svg11.dtd">
<!-- Created with Vectornator (http://vectornator.io/) -->
<svg height="864.0px" stroke-miterlimit="10" style="fill-rule:nonzero;clip-rule:evenodd;stroke-linecap:round;stroke-linejoin:round;" version="1.1" viewBox="0 0 864 864" width="864.0px" xml:space="preserve" xmlns="http://www.w3.org/2000/svg" xmlns:xlink="http://www.w3.org/1999/xlink">
<defs>
<linearGradient gradientTransform="matrix(39.5926 -46.2769 46.2769 39.5926 153.243 443.406)" gradientUnits="userSpaceOnUse" id="LinearGradient" x1="0" x2="1" y1="0" y2="0">
<stop offset="0" stop-color="#113b5e"/>
<stop offset="1" stop-color="#c69c4d"/>
</linearGradient>
<linearGradient gradientTransform="matrix(41.564 -5.69953 5.69953 41.564 160.656 356.539)" gradientUnits="userSpaceOnUse" id="LinearGradient_2" x1="0" x2="1" y1="0" y2="0">
<stop offset="0" stop-color="#113b5e"/>
<stop offset="1" stop-color="#c69c4d"/>
</linearGradient>
<linearGradient gradientTransform="matrix(27.5391 -60.888 62.6709 26.7558 162.672 435.72)" gradientUnits="userSpaceOnUse" id="LinearGradient_3" x1="0" x2="1" y1="0" y2="0">
<stop offset="0" stop-color="#113b5e"/>
<stop offset="1" stop-color="#c69c4d"/>
</linearGradient>
<linearGradient gradientTransform="matrix(-8.29752 -26.5791 26.5791 -8.29752 237.531 405.743)" gradientUnits="userSpaceOnUse" id="LinearGradient_4" x1="0" x2="1" y1="0" y2="0">
<stop offset="0" stop-color="#113b5e"/>
<stop offset="1" stop-color="#c69c4d"/>
</linearGradient>
<linearGradient gradientTransform="matrix(62.6674 -66.8619 66.8619 62.6674 96.668 389.923)" gradientUnits="userSpaceOnUse" id="LinearGradient_5" x1="0" x2="1" y1="0" y2="0">
<stop offset="0" stop-color="#113b5e"/>
<stop offset="0.995833" stop-color="#c69c4d"/>
</linearGradient>
</defs>
<g id="Layer-4">
<g opacity="1">
<path d="M452.664 454.282C451.845 453.386 450.802 452.67 449.535 452.132C448.268 451.594 446.853 451.326 445.292 451.326C443.704 451.326 442.271 451.614 440.991 452.19C439.711 452.766 438.623 453.553 437.727 454.551C436.831 455.55 436.14 456.708 435.653 458.026C435.167 459.345 434.924 460.746 434.924 462.231C434.924 463.742 435.167 465.162 435.653 466.494C436.14 467.825 436.831 468.983 437.727 469.969C438.623 470.954 439.724 471.729 441.029 472.292C442.335 472.855 443.794 473.137 445.407 473.137C446.687 473.137 447.864 473.022 448.94 472.791C450.015 472.561 450.949 472.228 451.743 471.793L451.743 464.228L445.714 464.228L445.714 461.002L455.506 461.002L455.506 474.174C454.072 474.942 452.511 475.53 450.821 475.94C449.132 476.35 447.288 476.554 445.292 476.554C443.167 476.554 441.215 476.202 439.436 475.498C437.656 474.794 436.127 473.809 434.847 472.542C433.567 471.274 432.568 469.764 431.852 468.01C431.135 466.257 430.776 464.33 430.776 462.231C430.776 460.106 431.141 458.167 431.871 456.414C432.6 454.66 433.612 453.162 434.904 451.921C436.197 450.679 437.727 449.713 439.493 449.022C441.26 448.33 443.18 447.985 445.253 447.985C447.429 447.985 449.368 448.305 451.071 448.945C452.773 449.585 454.188 450.442 455.314 451.518L452.664 454.282Z" fill="#939598" fill-rule="nonzero" opacity="1" stroke="none"/>
<path d="M468.236 475.863L464.434 475.863L464.434 448.676L473.151 448.676C474.456 448.676 475.698 448.81 476.876 449.079C478.053 449.348 479.084 449.777 479.967 450.366C480.85 450.954 481.548 451.729 482.06 452.689C482.572 453.649 482.828 454.82 482.828 456.202C482.828 458.199 482.213 459.812 480.984 461.041C479.756 462.27 478.168 463.05 476.223 463.383L483.826 475.863L479.218 475.863L472.306 463.767L468.236 463.767L468.236 475.863ZM468.236 460.58L472.613 460.58C473.509 460.58 474.341 460.503 475.109 460.35C475.877 460.196 476.549 459.946 477.125 459.601C477.701 459.255 478.156 458.807 478.488 458.257C478.821 457.706 478.988 457.022 478.988 456.202C478.988 455.383 478.821 454.698 478.488 454.148C478.156 453.598 477.714 453.156 477.164 452.823C476.613 452.49 475.967 452.254 475.224 452.113C474.482 451.972 473.701 451.902 472.882 451.902L468.236 451.902L468.236 460.58Z" fill="#939598" fill-rule="nonzero" opacity="1" stroke="none"/>
<path d="M517.829 462.231C517.829 464.33 517.464 466.257 516.735 468.01C516.005 469.764 515 471.274 513.72 472.542C512.44 473.809 510.917 474.794 509.151 475.498C507.384 476.202 505.464 476.554 503.391 476.554C501.317 476.554 499.404 476.202 497.65 475.498C495.896 474.794 494.38 473.809 493.1 472.542C491.82 471.274 490.821 469.764 490.104 468.01C489.388 466.257 489.029 464.33 489.029 462.231C489.029 460.106 489.388 458.167 490.104 456.414C490.821 454.66 491.82 453.162 493.1 451.921C494.38 450.679 495.896 449.713 497.65 449.022C499.404 448.33 501.317 447.985 503.391 447.985C505.464 447.985 507.384 448.33 509.151 449.022C510.917 449.713 512.44 450.679 513.72 451.921C515 453.162 516.005 454.66 516.735 456.414C517.464 458.167 517.829 460.106 517.829 462.231ZM513.72 462.231C513.72 460.746 513.477 459.345 512.991 458.026C512.504 456.708 511.813 455.55 510.917 454.551C510.021 453.553 508.94 452.766 507.672 452.19C506.405 451.614 504.978 451.326 503.391 451.326C501.829 451.326 500.415 451.614 499.148 452.19C497.88 452.766 496.805 453.553 495.922 454.551C495.039 455.55 494.354 456.708 493.868 458.026C493.381 459.345 493.138 460.746 493.138 462.231C493.138 463.742 493.381 465.162 493.868 466.494C494.354 467.825 495.045 468.983 495.941 469.969C496.837 470.954 497.912 471.729 499.167 472.292C500.421 472.855 501.829 473.137 503.391 473.137C504.952 473.137 506.373 472.855 507.653 472.292C508.933 471.729 510.021 470.954 510.917 469.969C511.813 468.983 512.504 467.825 512.991 466.494C513.477 465.162 513.72 463.742 513.72 462.231Z" fill="#939598" fill-rule="nonzero" opacity="1" stroke="none"/>
<path d="M535.781 476.554C533.989 476.554 532.428 476.254 531.096 475.652C529.765 475.05 528.664 474.25 527.794 473.252C526.924 472.254 526.277 471.108 525.855 469.815C525.432 468.522 525.221 467.185 525.221 465.802L525.221 448.676L529.023 448.676L529.023 465.572C529.023 466.494 529.138 467.409 529.368 468.318C529.599 469.226 529.976 470.039 530.501 470.756C531.026 471.473 531.717 472.049 532.575 472.484C533.432 472.919 534.501 473.137 535.781 473.137C537.036 473.137 538.098 472.919 538.968 472.484C539.839 472.049 540.536 471.473 541.061 470.756C541.586 470.039 541.964 469.226 542.194 468.318C542.424 467.409 542.54 466.494 542.54 465.572L542.54 448.676L546.341 448.676L546.341 465.802C546.341 467.185 546.13 468.522 545.708 469.815C545.285 471.108 544.639 472.254 543.768 473.252C542.898 474.25 541.797 475.05 540.466 475.652C539.135 476.254 537.573 476.554 535.781 476.554Z" fill="#939598" fill-rule="nonzero" opacity="1" stroke="none"/>
<path d="M555.154 448.676L563.448 448.676C564.908 448.676 566.239 448.823 567.442 449.118C568.645 449.412 569.669 449.866 570.514 450.481C571.359 451.095 572.012 451.876 572.472 452.823C572.933 453.77 573.164 454.91 573.164 456.241C573.164 457.598 572.914 458.762 572.415 459.735C571.916 460.708 571.224 461.502 570.341 462.116C569.458 462.73 568.408 463.185 567.192 463.479C565.976 463.774 564.664 463.921 563.256 463.921L558.956 463.921L558.956 475.863L555.154 475.863L555.154 448.676ZM558.956 460.695L562.988 460.695C563.909 460.695 564.76 460.612 565.541 460.446C566.322 460.279 566.994 460.023 567.557 459.678C568.12 459.332 568.556 458.878 568.863 458.314C569.17 457.751 569.324 457.06 569.324 456.241C569.324 455.422 569.164 454.737 568.844 454.186C568.524 453.636 568.088 453.188 567.538 452.842C566.988 452.497 566.328 452.254 565.56 452.113C564.792 451.972 563.96 451.902 563.064 451.902L558.956 451.902L558.956 460.695Z" fill="#939598" fill-rule="nonzero" opacity="1" stroke="none"/>
<path d="M596.204 472.484L608.338 472.484L608.338 475.863L592.402 475.863L592.402 448.676L596.204 448.676L596.204 472.484Z" fill="#939598" fill-rule="nonzero" opacity="1" stroke="none"/>
<path d="M618.226 472.484L630.36 472.484L630.36 475.863L614.424 475.863L614.424 448.676L618.226 448.676L618.226 472.484Z" fill="#939598" fill-rule="nonzero" opacity="1" stroke="none"/>
<path d="M658.604 471.639C657.528 473.098 656.133 474.282 654.418 475.191C652.703 476.1 650.642 476.554 648.236 476.554C646.162 476.554 644.248 476.202 642.495 475.498C640.741 474.794 639.231 473.809 637.964 472.542C636.696 471.274 635.704 469.764 634.988 468.01C634.271 466.257 633.912 464.33 633.912 462.231C633.912 460.106 634.277 458.167 635.007 456.414C635.736 454.66 636.748 453.162 638.04 451.921C639.333 450.679 640.863 449.713 642.629 449.022C644.396 448.33 646.316 447.985 648.389 447.985C649.311 447.985 650.245 448.074 651.192 448.254C652.14 448.433 653.048 448.702 653.919 449.06C654.789 449.418 655.583 449.86 656.3 450.385C657.016 450.91 657.631 451.518 658.143 452.209L655.148 454.513C654.482 453.591 653.541 452.83 652.325 452.228C651.109 451.626 649.797 451.326 648.389 451.326C646.802 451.326 645.375 451.614 644.108 452.19C642.84 452.766 641.759 453.553 640.863 454.551C639.967 455.55 639.276 456.708 638.789 458.026C638.303 459.345 638.06 460.746 638.06 462.231C638.06 463.767 638.296 465.201 638.77 466.532C639.244 467.863 639.922 469.022 640.805 470.007C641.688 470.993 642.764 471.767 644.031 472.33C645.298 472.894 646.712 473.175 648.274 473.175C649.81 473.175 651.205 472.868 652.46 472.254C653.714 471.639 654.751 470.743 655.57 469.566L658.604 471.639Z" fill="#939598" fill-rule="nonzero" opacity="1" stroke="none"/>
</g>
<path d="M331.623 457.187L331.623 462.27L396.358 462.27L414.27 462.27L414.27 457.187L331.623 457.187Z" fill="#939598" fill-rule="nonzero" opacity="1" stroke="none"/>
<path d="M677.519 457.187L677.519 462.27L742.254 462.27L760.166 462.27L760.166 457.187L677.519 457.187Z" fill="#939598" fill-rule="nonzero" opacity="1" stroke="none"/>
<g opacity="1">
<path d="M34.248 494.432L58.7528 453.676L83.6752 453.676L72.8152 474.054L120.572 474.054L136.723 445.283L64.6008 445.283L120.572 348.655L139.786 378.59L184.972 299.826L218.843 352.807L204.478 378.59L184.972 346.218L145.038 413.828L133.572 413.828L120.572 393.4L104.973 422.131L176.537 422.131L133.572 494.432L34.248 494.432Z" fill="#113b5e" fill-rule="nonzero" opacity="1" stroke="none"/>
<path d="M129.949 457.351L155.607 457.351L176.537 422.131L129.949 422.131L129.949 445.283L136.723 445.283L129.949 457.351Z" fill="url(#LinearGradient)" fill-rule="nonzero" opacity="1" stroke="none"/>
<path d="M204.458 378.618L212.131 364.853L184.899 323.061L152.582 378.506L165.834 378.618L184.974 346.221L204.458 378.618Z" fill="url(#LinearGradient_2)" fill-rule="nonzero" opacity="1" stroke="none"/>
<path d="M143.698 494.432L224.135 359.69L311.138 494.432L282.354 494.432L253.718 451.652L226.063 406.97L199.158 451.652L245.103 437.733L253.718 451.652L192.33 474.394L187.114 477.205L185.242 478.318L183.241 479.823L181.574 481.416L180.05 483.161L177.397 487.02L174.664 491.2L172.865 494.432L143.698 494.432Z" fill="#113b5e" fill-rule="nonzero" opacity="1" stroke="none"/>
<path d="M181.007 457.351L165.834 457.351L224.135 359.69L233.065 373.519L181.007 457.351Z" fill="url(#LinearGradient_3)" fill-rule="nonzero" opacity="1" stroke="none"/>
<path d="M207.038 415.432L220.968 415.432L226.026 407.032L231.3 415.432L260.127 415.432L232.871 373.22L207.038 415.432Z" fill="url(#LinearGradient_4)" fill-rule="nonzero" opacity="1" stroke="none"/>
<path d="M184.909 323.116L211.584 365.836L218.843 352.807L184.972 299.826L139.682 378.429L120.569 348.661L85.4216 409.338L98.4968 409.338L120.8 371.125L139.682 400.607L184.909 323.116Z" fill="url(#LinearGradient_5)" fill-rule="nonzero" opacity="1" stroke="none"/>
</g>
<g opacity="1">
<path d="M340.902 401.371C339.889 400.085 338.565 399.063 336.931 398.306C335.297 397.55 333.721 397.172 332.203 397.174C331.422 397.175 330.628 397.246 329.823 397.385C329.018 397.524 328.294 397.79 327.651 398.181C327.007 398.573 326.468 399.08 326.032 399.702C325.595 400.323 325.378 401.117 325.379 402.082C325.381 402.91 325.554 403.6 325.9 404.152C326.246 404.703 326.752 405.186 327.42 405.598C328.087 406.011 328.882 406.39 329.802 406.734C330.722 407.078 331.758 407.432 332.908 407.798C334.565 408.349 336.29 408.955 338.085 409.62C339.88 410.285 341.514 411.167 342.987 412.27C344.461 413.371 345.682 414.738 346.65 416.37C347.618 418.002 348.104 420.036 348.107 422.474C348.111 425.279 347.597 427.706 346.565 429.755C345.533 431.803 344.144 433.495 342.398 434.832C340.652 436.168 338.652 437.16 336.399 437.807C334.146 438.454 331.824 438.779 329.432 438.782C325.936 438.787 322.554 438.182 319.287 436.968C316.02 435.754 313.303 434.022 311.138 431.77L318.855 423.894C320.053 425.365 321.63 426.593 323.586 427.579C325.542 428.565 327.486 429.057 329.418 429.054C330.293 429.053 331.143 428.96 331.971 428.774C332.798 428.59 333.522 428.29 334.143 427.874C334.763 427.46 335.258 426.907 335.624 426.217C335.991 425.526 336.174 424.698 336.173 423.732C336.171 422.812 335.941 422.03 335.479 421.387C335.018 420.744 334.362 420.158 333.51 419.63C332.659 419.103 331.601 418.622 330.335 418.186C329.07 417.751 327.631 417.282 326.021 416.778C324.456 416.274 322.926 415.678 321.43 414.99C319.934 414.302 318.599 413.418 317.425 412.339C316.25 411.26 315.306 409.95 314.59 408.41C313.875 406.87 313.516 404.997 313.514 402.789C313.51 400.075 314.058 397.751 315.159 395.818C316.261 393.885 317.707 392.296 319.499 391.051C321.292 389.807 323.314 388.896 325.567 388.318C327.821 387.739 330.097 387.449 332.397 387.446C335.157 387.442 337.974 387.944 340.851 388.952C343.727 389.96 346.247 391.451 348.412 393.426L340.902 401.371Z" fill="#113b5e" fill-rule="nonzero" opacity="1" stroke="none"/>
<path d="M358.325 437.501L358.257 388.652L370.124 388.635L370.192 437.484L358.325 437.501Z" fill="#113b5e" fill-rule="nonzero" opacity="1" stroke="none"/>
<path d="M382.665 437.467L382.598 388.618L415.439 388.573L415.453 398.577L393.996 398.606L394.008 407.783L414.293 407.755L414.306 417.207L394.022 417.235L394.035 427.378L416.735 427.346L416.749 437.42L382.665 437.467Z" fill="#113b5e" fill-rule="nonzero" opacity="1" stroke="none"/>
<path d="M453.094 437.37L442.511 417.996L438.51 418.002L438.537 437.39L426.946 437.406L426.878 388.557L445.506 388.531C447.852 388.528 450.141 388.766 452.373 389.246C454.604 389.726 456.606 390.539 458.378 391.687C460.151 392.834 461.567 394.35 462.628 396.235C463.689 398.119 464.221 400.464 464.225 403.27C464.23 406.582 463.336 409.366 461.546 411.622C459.754 413.878 457.273 415.492 454.101 416.462L466.894 437.35L453.094 437.37ZM452.565 403.494C452.563 402.343 452.321 401.412 451.837 400.7C451.353 399.988 450.73 399.437 449.971 399.046C449.212 398.657 448.361 398.394 447.418 398.257C446.474 398.12 445.566 398.052 444.692 398.054L438.413 398.062L438.429 409.446L444.018 409.438C444.983 409.438 445.972 409.355 446.984 409.193C447.996 409.03 448.915 408.742 449.742 408.327C450.57 407.912 451.248 407.313 451.775 406.53C452.303 405.747 452.566 404.735 452.565 403.494Z" fill="#113b5e" fill-rule="nonzero" opacity="1" stroke="none"/>
<path d="M501.238 437.302L490.655 417.93L486.654 417.935L486.681 437.323L475.09 437.339L475.022 388.49L493.65 388.464C495.996 388.461 498.285 388.699 500.517 389.179C502.748 389.659 504.75 390.473 506.522 391.62C508.295 392.768 509.711 394.284 510.772 396.168C511.833 398.053 512.365 400.398 512.369 403.203C512.374 406.515 511.48 409.299 509.69 411.556C507.898 413.812 505.417 415.426 502.245 416.396L515.038 437.284L501.238 437.302ZM500.709 403.426C500.707 402.277 500.465 401.346 499.981 400.634C499.497 399.921 498.874 399.37 498.115 398.98C497.356 398.59 496.505 398.327 495.562 398.19C494.618 398.054 493.71 397.986 492.836 397.987L486.557 397.996L486.573 409.38L492.162 409.372C493.127 409.37 494.116 409.289 495.128 409.126C496.14 408.964 497.059 408.675 497.886 408.26C498.714 407.845 499.392 407.246 499.919 406.463C500.447 405.681 500.71 404.669 500.709 403.426Z" fill="#113b5e" fill-rule="nonzero" opacity="1" stroke="none"/>
<path d="M556.351 437.226L552.543 427.642L533.638 427.667L530.064 437.263L517.23 437.281L537.654 388.403L549.108 388.388L569.46 437.208L556.351 437.226ZM543.193 401.436L537.006 418.21L549.287 418.194L543.193 401.436Z" fill="#113b5e" fill-rule="nonzero" opacity="1" stroke="none"/>
<path d="M626.214 437.13L622.406 427.545L603.501 427.57L599.926 437.166L587.094 437.184L607.518 388.306L618.97 388.291L639.323 437.111L626.214 437.13ZM613.055 401.339L606.869 418.114L619.15 418.097L613.055 401.339Z" fill="#113b5e" fill-rule="nonzero" opacity="1" stroke="none"/>
<path d="M682.798 403.243C682.802 406.095 682.276 408.499 681.221 410.456C680.166 412.412 678.742 413.99 676.95 415.188C675.158 416.386 673.089 417.263 670.743 417.818C668.398 418.374 665.961 418.653 663.431 418.656L657.566 418.665L657.592 437.086L645.794 437.102L645.726 388.254L663.665 388.229C666.333 388.226 668.829 388.486 671.152 389.012C673.476 389.538 675.501 390.386 677.227 391.557C678.954 392.727 680.313 394.266 681.304 396.174C682.296 398.081 682.794 400.438 682.798 403.243ZM670.999 403.329C670.998 402.179 670.766 401.236 670.306 400.501C669.845 399.766 669.222 399.191 668.44 398.778C667.658 398.366 666.772 398.091 665.782 397.954C664.794 397.818 663.77 397.75 662.712 397.752L657.538 397.759L657.554 409.281L662.521 409.274C663.625 409.273 664.683 409.179 665.694 408.994C666.706 408.809 667.614 408.486 668.418 408.024C669.223 407.563 669.854 406.953 670.314 406.193C670.772 405.434 671.001 404.478 670.999 403.329Z" fill="#113b5e" fill-rule="nonzero" opacity="1" stroke="none"/>
<path d="M692.351 437.038L692.283 388.19L725.125 388.144L725.139 398.148L703.682 398.178L703.694 407.354L723.978 407.326L723.992 416.778L703.707 416.806L703.721 426.949L726.421 426.918L726.434 436.991L692.351 437.038Z" fill="#113b5e" fill-rule="nonzero" opacity="1" stroke="none"/>
<path d="M766.092 436.936L755.374 419.702L745.118 436.965L731.042 436.985L748.118 411.157L732.354 388.134L746.568 388.114L755.696 403.281L764.645 388.089L778.374 388.07L762.952 411.136L780.65 436.916L766.092 436.936Z" fill="#113b5e" fill-rule="nonzero" opacity="1" stroke="none"/>
</g>
</g>
</svg>
