<?xml version="1.0" encoding="UTF-8" standalone="no"?>
<!DOCTYPE svg PUBLIC "-//W3C//DTD SVG 1.1//EN" "http://www.w3.org/Graphics/SVG/1.1/DTD/svg11.dtd">
<!-- Created with Vectornator (http://vectornator.io/) -->
<svg height="1080.0px" stroke-miterlimit="10" style="fill-rule:nonzero;clip-rule:evenodd;stroke-linecap:round;stroke-linejoin:round;" version="1.1" viewBox="0 0 1080 1080" width="1080.0px" xml:space="preserve" xmlns="http://www.w3.org/2000/svg" xmlns:xlink="http://www.w3.org/1999/xlink">
<defs>
<linearGradient gradientTransform="matrix(63.5277 -81.8315 74.253 70.0116 486.724 521.452)" gradientUnits="userSpaceOnUse" id="LinearGradient" x1="0" x2="1" y1="0" y2="0">
<stop offset="0" stop-color="#113b5e"/>
<stop offset="1" stop-color="#c69c4d"/>
</linearGradient>
<linearGradient gradientTransform="matrix(66.691 -10.0785 9.1451 73.4978 498.613 367.845)" gradientUnits="userSpaceOnUse" id="LinearGradient_2" x1="0" x2="1" y1="0" y2="0">
<stop offset="0" stop-color="#113b5e"/>
<stop offset="1" stop-color="#c69c4d"/>
</linearGradient>
<linearGradient gradientTransform="matrix(44.1875 -107.668 100.558 47.3123 501.853 507.861)" gradientUnits="userSpaceOnUse" id="LinearGradient_3" x1="0" x2="1" y1="0" y2="0">
<stop offset="0" stop-color="#113b5e"/>
<stop offset="1" stop-color="#c69c4d"/>
</linearGradient>
<linearGradient gradientTransform="matrix(-13.3137 -46.9999 42.6471 -14.6725 621.965 454.852)" gradientUnits="userSpaceOnUse" id="LinearGradient_4" x1="0" x2="1" y1="0" y2="0">
<stop offset="0" stop-color="#113b5e"/>
<stop offset="1" stop-color="#c69c4d"/>
</linearGradient>
<linearGradient gradientTransform="matrix(100.552 -118.232 107.282 110.815 395.951 426.878)" gradientUnits="userSpaceOnUse" id="LinearGradient_5" x1="0" x2="1" y1="0" y2="0">
<stop offset="0" stop-color="#113b5e"/>
<stop offset="0.995833" stop-color="#c69c4d"/>
</linearGradient>
</defs>
<g id="Layer-1">
<g opacity="1">
<path d="M148.381 781.006L148.381 789.993L272.991 789.993L307.482 789.993L307.482 781.006L148.381 781.006Z" fill="#939598" fill-rule="nonzero" opacity="1" stroke="none"/>
<path d="M740.071 781.006L740.071 789.993L864.685 789.993L899.167 789.993L899.167 781.006L740.071 781.006Z" fill="#939598" fill-rule="nonzero" opacity="1" stroke="none"/>
<path d="M295.794 611.681L335.102 539.612L375.088 539.612L357.675 575.648L434.304 575.648L460.222 524.772L344.487 524.772L434.304 353.903L465.135 406.838L537.625 267.56L591.975 361.246L568.933 406.838L537.625 349.593L473.554 469.149L455.157 469.149L434.304 433.026L409.274 483.832L524.101 483.832L455.157 611.681L295.794 611.681Z" fill="#113b5e" fill-rule="nonzero" opacity="1" stroke="none"/>
<path d="M449.337 546.112L490.518 546.112L524.101 483.832L449.337 483.832L449.337 524.772L460.222 524.772L449.337 546.112Z" fill="url(#LinearGradient)" fill-rule="nonzero" opacity="1" stroke="none"/>
<g opacity="1">
<path d="M379.58 773.051C378.252 771.467 376.579 770.199 374.553 769.249C372.508 768.298 370.252 767.822 367.749 767.822C365.197 767.822 362.894 768.332 360.848 769.351C358.794 770.369 357.035 771.761 355.611 773.526C354.158 775.292 353.05 777.34 352.285 779.672C351.492 782.003 351.11 784.481 351.11 787.107C351.11 789.778 351.492 792.29 352.285 794.644C353.05 796.999 354.158 799.046 355.611 800.789C357.035 802.533 358.803 803.904 360.906 804.894C362.999 805.893 365.34 806.392 367.93 806.392C369.975 806.392 371.877 806.192 373.588 805.784C375.318 805.375 376.828 804.785 378.099 804.022L378.099 790.638L368.427 790.638L368.427 784.934L384.139 784.934L384.139 808.218C381.836 809.589 379.332 810.624 376.608 811.351C373.903 812.077 370.941 812.44 367.749 812.44C364.337 812.44 361.192 811.814 358.344 810.57C355.496 809.325 353.04 807.582 350.976 805.348C348.931 803.1 347.335 800.428 346.169 797.326C345.031 794.225 344.458 790.819 344.458 787.107C344.458 783.349 345.031 779.92 346.217 776.82C347.383 773.719 349.007 771.071 351.081 768.875C353.155 766.68 355.611 764.971 358.43 763.748C361.269 762.526 364.346 761.915 367.672 761.915C371.17 761.915 374.276 762.481 377.019 763.612C379.752 764.745 382.008 766.261 383.823 768.162L379.58 773.051Z" fill="#939598" fill-rule="nonzero" opacity="1" stroke="none"/>
<path d="M404.562 811.214L398.465 811.214L398.465 763.137L412.437 763.137C414.54 763.137 416.537 763.375 418.41 763.85C420.312 764.326 421.965 765.083 423.38 766.125C424.804 767.166 425.922 768.535 426.744 770.233C427.566 771.931 427.967 774.002 427.967 776.446C427.967 779.978 426.992 782.829 425.014 785.002C423.045 787.174 420.494 788.556 417.369 789.144L429.563 811.214L422.185 811.214L411.08 789.823L404.562 789.823L404.562 811.214ZM404.562 784.187L411.587 784.187C413.011 784.187 414.349 784.051 415.591 783.78C416.824 783.508 417.904 783.067 418.812 782.456C419.748 781.845 420.465 781.052 421 780.079C421.545 779.106 421.803 777.895 421.803 776.446C421.803 774.997 421.545 773.787 421 772.813C420.465 771.84 419.758 771.059 418.888 770.47C417.99 769.882 416.967 769.463 415.773 769.214C414.578 768.966 413.326 768.841 412.017 768.841L404.562 768.841L404.562 784.187Z" fill="#939598" fill-rule="nonzero" opacity="1" stroke="none"/>
<path d="M484.124 787.107C484.124 790.819 483.551 794.225 482.375 797.326C481.209 800.428 479.594 803.1 477.54 805.348C475.475 807.582 473.048 809.325 470.209 810.57C467.371 811.814 464.294 812.44 460.968 812.44C457.642 812.44 454.564 811.814 451.745 810.57C448.935 809.325 446.508 807.582 444.444 805.348C442.389 803.1 440.802 800.428 439.636 797.326C438.499 794.225 437.926 790.819 437.926 787.107C437.926 783.349 438.499 779.92 439.636 776.82C440.802 773.719 442.389 771.071 444.444 768.875C446.508 766.68 448.935 764.971 451.745 763.748C454.564 762.526 457.642 761.915 460.968 761.915C464.294 761.915 467.371 762.526 470.209 763.748C473.048 764.971 475.475 766.68 477.54 768.875C479.594 771.071 481.209 773.719 482.375 776.82C483.551 779.92 484.124 783.349 484.124 787.107ZM477.54 787.107C477.54 784.481 477.148 782.003 476.374 779.672C475.59 777.34 474.472 775.292 473.048 773.526C471.605 771.761 469.865 770.369 467.839 769.351C465.804 768.332 463.519 767.822 460.968 767.822C458.464 767.822 456.189 768.332 454.163 769.351C452.118 770.369 450.388 771.761 448.983 773.526C447.569 775.292 446.46 777.34 445.686 779.672C444.912 782.003 444.52 784.481 444.52 787.107C444.52 789.778 444.912 792.29 445.686 794.644C446.46 796.999 447.569 799.046 449.012 800.789C450.445 802.533 452.175 803.904 454.192 804.894C456.208 805.893 458.464 806.392 460.968 806.392C463.472 806.392 465.746 805.893 467.811 804.894C469.865 803.904 471.605 802.533 473.048 800.789C474.472 799.046 475.59 796.999 476.374 794.644C477.148 792.29 477.54 789.778 477.54 787.107Z" fill="#939598" fill-rule="nonzero" opacity="1" stroke="none"/>
<path d="M512.929 812.44C510.062 812.44 507.558 811.905 505.427 810.842C503.286 809.78 501.518 808.354 500.123 806.601C498.727 804.83 497.686 802.804 497.007 800.518C496.338 798.232 495.985 795.866 495.985 793.422L495.985 763.137L502.092 763.137L502.092 793.015C502.092 794.644 502.283 796.263 502.636 797.869C503.009 799.477 503.63 800.913 504.462 802.181C505.312 803.45 506.421 804.476 507.788 805.239C509.173 806.002 510.884 806.392 512.929 806.392C514.955 806.392 516.656 806.002 518.052 805.239C519.447 804.476 520.575 803.45 521.406 802.181C522.257 800.913 522.859 799.477 523.232 797.869C523.595 796.263 523.786 794.644 523.786 793.015L523.786 763.137L529.883 763.137L529.883 793.422C529.883 795.866 529.539 798.232 528.861 800.518C528.182 802.804 527.15 804.83 525.755 806.601C524.359 808.354 522.591 809.78 520.46 810.842C518.31 811.905 515.806 812.44 512.929 812.44Z" fill="#939598" fill-rule="nonzero" opacity="1" stroke="none"/>
<path d="M544.028 763.137L557.331 763.137C559.673 763.137 561.813 763.398 563.744 763.918C565.674 764.439 567.318 765.242 568.666 766.328C570.023 767.415 571.074 768.796 571.81 770.47C572.555 772.146 572.919 774.16 572.919 776.514C572.919 778.913 572.517 780.973 571.724 782.693C570.921 784.414 569.813 785.817 568.389 786.903C566.974 787.99 565.292 788.794 563.342 789.314C561.393 789.834 559.281 790.095 557.025 790.095L550.125 790.095L550.125 811.214L544.028 811.214L544.028 763.137ZM550.125 784.391L556.595 784.391C558.077 784.391 559.434 784.244 560.695 783.95C561.947 783.655 563.018 783.202 563.925 782.591C564.833 781.98 565.531 781.177 566.018 780.181C566.515 779.185 566.764 777.962 566.764 776.514C566.764 775.066 566.506 773.855 565.99 772.881C565.474 771.908 564.776 771.116 563.897 770.505C563.008 769.894 561.957 769.463 560.724 769.214C559.491 768.966 558.153 768.841 556.719 768.841L550.125 768.841L550.125 784.391Z" fill="#939598" fill-rule="nonzero" opacity="1" stroke="none"/>
<path d="M609.895 805.239L629.362 805.239L629.362 811.214L603.788 811.214L603.788 763.137L609.895 763.137L609.895 805.239Z" fill="#939598" fill-rule="nonzero" opacity="1" stroke="none"/>
<path d="M645.227 805.239L664.695 805.239L664.695 811.214L639.13 811.214L639.13 763.137L645.227 763.137L645.227 805.239Z" fill="#939598" fill-rule="nonzero" opacity="1" stroke="none"/>
<path d="M710.014 803.75C708.284 806.329 706.048 808.417 703.295 810.025C700.543 811.623 697.236 812.44 693.375 812.44C690.049 812.44 686.982 811.814 684.162 810.57C681.353 809.325 678.925 807.582 676.899 805.348C674.863 803.1 673.267 800.428 672.12 797.326C670.974 794.225 670.391 790.819 670.391 787.107C670.391 783.349 670.983 779.92 672.149 776.82C673.325 773.719 674.94 771.071 677.023 768.875C679.097 766.68 681.544 764.971 684.382 763.748C687.221 762.526 690.298 761.915 693.624 761.915C695.105 761.915 696.606 762.074 698.125 762.39C699.645 762.707 701.097 763.183 702.493 763.817C703.898 764.45 705.169 765.231 706.315 766.159C707.462 767.087 708.456 768.162 709.278 769.384L704.471 773.458C703.401 771.829 701.891 770.482 699.941 769.418C697.991 768.354 695.879 767.822 693.624 767.822C691.082 767.822 688.788 768.332 686.752 769.351C684.717 770.369 682.987 771.761 681.544 773.526C680.11 775.292 679.001 777.34 678.218 779.672C677.444 782.003 677.052 784.481 677.052 787.107C677.052 789.823 677.434 792.358 678.189 794.712C678.954 797.066 680.034 799.114 681.458 800.857C682.872 802.6 684.602 803.977 686.628 804.966C688.664 805.965 690.929 806.465 693.442 806.465C695.908 806.465 698.144 805.92 700.151 804.83C702.168 803.75 703.831 802.159 705.149 800.076L710.014 803.75Z" fill="#939598" fill-rule="nonzero" opacity="1" stroke="none"/>
</g>
<path d="M568.895 406.886L581.205 382.546L537.51 308.645L485.653 406.688L506.927 406.886L537.625 349.599L568.895 406.886Z" fill="url(#LinearGradient_2)" fill-rule="nonzero" opacity="1" stroke="none"/>
<path d="M471.414 611.681L600.471 373.416L740.071 611.681L693.891 611.681L647.941 536.033L603.568 457.023L560.399 536.033L634.122 511.42L647.941 536.033L549.447 576.248L541.075 581.218L538.064 583.188L534.853 585.849L532.187 588.666L529.74 591.75L525.478 598.575L521.091 605.966L518.205 611.681L471.414 611.681Z" fill="#113b5e" fill-rule="nonzero" opacity="1" stroke="none"/>
<path d="M531.269 546.112L506.927 546.112L600.471 373.416L614.797 397.871L531.269 546.112Z" fill="url(#LinearGradient_3)" fill-rule="nonzero" opacity="1" stroke="none"/>
<path d="M573.043 471.985L595.397 471.985L603.511 457.132L611.969 471.985L658.225 471.985L614.492 397.342L573.043 471.985Z" fill="url(#LinearGradient_4)" fill-rule="nonzero" opacity="1" stroke="none"/>
<path d="M537.529 308.742L580.335 384.285L591.975 361.246L537.625 267.56L464.953 406.553L434.284 353.913L377.898 461.208L398.876 461.208L434.657 393.637L464.953 445.77L537.529 308.742Z" fill="url(#LinearGradient_5)" fill-rule="nonzero" opacity="1" stroke="none"/>
<g opacity="1">
<path d="M195.663 670.945C194.036 668.67 191.912 666.864 189.29 665.526C186.668 664.187 184.139 663.52 181.704 663.524C180.45 663.525 179.177 663.649 177.886 663.896C176.594 664.142 175.433 664.612 174.4 665.303C173.367 665.997 172.502 666.893 171.803 667.993C171.101 669.092 170.754 670.495 170.755 672.203C170.757 673.667 171.036 674.887 171.591 675.862C172.145 676.837 172.957 677.69 174.03 678.42C175.1 679.15 176.373 679.819 177.851 680.427C179.328 681.035 180.989 681.662 182.836 682.311C185.493 683.283 188.262 684.356 191.142 685.532C194.022 686.707 196.643 688.267 199.008 690.217C201.372 692.165 203.331 694.582 204.885 697.467C206.438 700.352 207.217 703.95 207.223 708.26C207.23 713.221 206.404 717.514 204.748 721.136C203.093 724.758 200.864 727.75 198.062 730.114C195.261 732.476 192.051 734.231 188.437 735.375C184.822 736.519 181.096 737.094 177.258 737.1C171.648 737.108 166.223 736.039 160.981 733.891C155.738 731.743 151.379 728.681 147.906 724.7L160.287 710.773C162.209 713.373 164.74 715.544 167.879 717.289C171.017 719.031 174.136 719.901 177.236 719.897C178.639 719.894 180.004 719.731 181.332 719.402C182.66 719.075 183.821 718.545 184.818 717.811C185.812 717.078 186.604 716.1 187.194 714.88C187.782 713.659 188.077 712.194 188.074 710.486C188.071 708.859 187.7 707.476 186.961 706.339C186.222 705.202 185.169 704.166 183.802 703.233C182.436 702.3 180.738 701.449 178.707 700.679C176.676 699.91 174.368 699.079 171.785 698.188C169.274 697.297 166.818 696.245 164.419 695.028C162.018 693.811 159.877 692.248 157.992 690.34C156.107 688.431 154.592 686.116 153.444 683.392C152.296 680.67 151.72 677.356 151.715 673.452C151.71 668.653 152.59 664.544 154.357 661.126C156.125 657.707 158.445 654.897 161.321 652.697C164.197 650.496 167.442 648.885 171.056 647.863C174.673 646.839 178.325 646.326 182.015 646.321C186.443 646.313 190.965 647.201 195.579 648.984C200.195 650.767 204.238 653.403 207.712 656.897L195.663 670.945Z" fill="#113b5e" fill-rule="nonzero" opacity="1" stroke="none"/>
<path d="M223.617 734.833L223.508 648.454L242.55 648.424L242.659 734.804L223.617 734.833Z" fill="#113b5e" fill-rule="nonzero" opacity="1" stroke="none"/>
<path d="M262.672 734.774L262.564 648.394L315.252 648.314L315.28 666.003L280.856 666.056L280.866 682.283L313.426 682.234L313.446 698.948L280.885 698.997L280.913 716.932L317.345 716.877L317.354 734.69L262.672 734.774Z" fill="#113b5e" fill-rule="nonzero" opacity="1" stroke="none"/>
<path d="M375.681 734.601L358.698 700.342L352.285 700.352L352.314 734.637L333.726 734.665L333.62 648.285L363.505 648.24C367.271 648.234 370.941 648.656 374.524 649.504C378.108 650.352 381.319 651.791 384.158 653.821C387.006 655.85 389.28 658.53 390.982 661.863C392.673 665.194 393.524 669.341 393.543 674.304C393.552 680.158 392.119 685.083 389.233 689.072C386.356 693.062 382.38 695.915 377.286 697.631L397.815 734.567L375.681 734.601ZM374.83 674.698C374.83 672.663 374.438 671.017 373.664 669.758C372.881 668.499 371.877 667.524 370.673 666.834C369.45 666.145 368.093 665.68 366.563 665.438C365.053 665.196 363.601 665.075 362.205 665.079L352.113 665.094L352.142 685.225L361.116 685.21C362.664 685.209 364.251 685.063 365.875 684.776C367.5 684.489 368.981 683.98 370.31 683.245C371.619 682.511 372.709 681.451 373.559 680.068C374.41 678.683 374.84 676.894 374.83 674.698Z" fill="#113b5e" fill-rule="nonzero" opacity="1" stroke="none"/>
<path d="M452.921 734.482L435.938 700.225L429.535 700.235L429.563 734.519L410.965 734.548L410.87 648.168L440.745 648.121C444.52 648.115 448.19 648.537 451.774 649.386C455.358 650.235 458.569 651.673 461.407 653.702C464.255 655.731 466.53 658.412 468.221 661.744C469.923 665.077 470.773 669.224 470.783 674.185C470.802 680.041 469.359 684.964 466.482 688.955C463.605 692.944 459.63 695.797 454.536 697.513L475.074 734.45L452.921 734.482ZM452.08 674.58C452.08 672.546 451.688 670.9 450.914 669.64C450.13 668.38 449.136 667.405 447.913 666.717C446.689 666.028 445.323 665.562 443.813 665.32C442.303 665.079 440.85 664.958 439.455 664.961L429.363 664.976L429.391 685.107L438.356 685.093C439.914 685.09 441.5 684.946 443.125 684.659C444.749 684.371 446.231 683.861 447.54 683.127C448.878 682.392 449.958 681.334 450.809 679.949C451.659 678.565 452.089 676.776 452.08 674.58Z" fill="#113b5e" fill-rule="nonzero" opacity="1" stroke="none"/>
<path d="M541.361 734.348L535.254 717.399L504.911 717.444L499.186 734.413L478.591 734.444L511.362 648.013L529.74 647.987L562.387 734.315L541.361 734.348ZM520.24 671.06L510.311 700.722L530.027 700.692L520.24 671.06Z" fill="#113b5e" fill-rule="nonzero" opacity="1" stroke="none"/>
<path d="M653.456 734.176L647.349 717.228L617.015 717.273L611.28 734.242L590.695 734.273L623.466 647.843L641.834 647.815L674.491 734.144L653.456 734.176ZM632.344 670.888L622.424 700.55L642.121 700.521L632.344 670.888Z" fill="#113b5e" fill-rule="nonzero" opacity="1" stroke="none"/>
<path d="M744.247 674.255C744.257 679.298 743.416 683.549 741.724 687.01C740.023 690.468 737.739 693.258 734.872 695.378C731.995 697.496 728.669 699.047 724.913 700.029C721.148 701.011 717.239 701.504 713.177 701.51L703.764 701.526L703.812 734.1L684.879 734.129L684.764 647.749L713.55 647.705C717.832 647.7 721.836 648.16 725.563 649.09C729.291 650.019 732.54 651.519 735.311 653.59C738.083 655.66 740.262 658.381 741.858 661.754C743.444 665.127 744.247 669.294 744.247 674.255ZM725.315 674.406C725.315 672.374 724.942 670.706 724.206 669.406C723.47 668.106 722.467 667.09 721.215 666.36C719.953 665.63 718.539 665.145 716.952 664.903C715.366 664.661 713.722 664.542 712.021 664.545L703.716 664.558L703.745 684.931L711.715 684.92C713.483 684.918 715.184 684.752 716.809 684.424C718.434 684.097 719.886 683.526 721.177 682.709C722.467 681.895 723.48 680.815 724.216 679.471C724.952 678.129 725.324 676.439 725.315 674.406Z" fill="#113b5e" fill-rule="nonzero" opacity="1" stroke="none"/>
<path d="M759.577 734.016L759.472 647.636L812.169 647.556L812.188 665.245L777.764 665.298L777.783 681.525L810.324 681.476L810.353 698.19L777.802 698.239L777.821 716.174L814.243 716.119L814.272 733.932L759.577 734.016Z" fill="#113b5e" fill-rule="nonzero" opacity="1" stroke="none"/>
<path d="M877.902 733.835L860.7 703.359L844.242 733.886L821.659 733.921L849.059 688.249L823.762 647.537L846.574 647.503L861.216 674.322L875.58 647.458L897.609 647.425L872.856 688.212L901.26 733.799L877.902 733.835Z" fill="#113b5e" fill-rule="nonzero" opacity="1" stroke="none"/>
</g>
</g>
</g>
</svg>
